<?xml version="1.0" encoding="UTF-8"?>
<!DOCTYPE svg PUBLIC "-//W3C//DTD SVG 1.1//EN" "http://www.w3.org/Graphics/SVG/1.1/DTD/svg11.dtd">
<svg xmlns="http://www.w3.org/2000/svg" version="1.1" width="640px" height="640px" style="shape-rendering:geometricPrecision; text-rendering:geometricPrecision; image-rendering:optimizeQuality; fill-rule:evenodd; clip-rule:evenodd" xmlns:xlink="http://www.w3.org/1999/xlink">
<g><path style="opacity:1" fill="#000000" d="M -0.5,-0.5 C 212.833,-0.5 426.167,-0.5 639.5,-0.5C 639.5,212.833 639.5,426.167 639.5,639.5C 426.167,639.5 212.833,639.5 -0.5,639.5C -0.5,426.167 -0.5,212.833 -0.5,-0.5 Z"/></g>
<g><path style="opacity:1" fill="#fbfbfb" d="M 268.5,241.5 C 288.129,239.54 305.796,244.373 321.5,256C 317.023,261.978 312.357,267.811 307.5,273.5C 297.371,265.931 286.038,262.764 273.5,264C 257.97,268.868 248.803,279.368 246,295.5C 243.701,312.507 248.535,327.007 260.5,339C 277.456,348.716 293.456,347.216 308.5,334.5C 313.185,339.351 317.685,344.351 322,349.5C 322.163,351.387 321.329,352.887 319.5,354C 300.536,367.456 279.87,370.789 257.5,364C 237.02,355.511 224.52,340.344 220,318.5C 214.513,289.94 223.346,267.107 246.5,250C 253.607,246.248 260.94,243.415 268.5,241.5 Z"/></g>
<g><path style="opacity:1" fill="#fbfbfb" d="M 563.5,241.5 C 563.5,247.833 563.5,254.167 563.5,260.5C 559.298,260.183 555.298,260.517 551.5,261.5C 548.266,261.205 545.266,261.871 542.5,263.5C 553.199,284.562 549.865,303.062 532.5,319C 515.893,330.379 497.893,333.212 478.5,327.5C 473.113,329.605 471.613,333.272 474,338.5C 476.469,340.652 479.302,342.152 482.5,343C 496.485,344.51 510.485,345.843 524.5,347C 536.985,347.661 547.485,352.495 556,361.5C 564.923,376.998 562.423,390.498 548.5,402C 526.178,412.35 502.844,415.35 478.5,411C 465.932,409.266 455.099,404.099 446,395.5C 437.296,377.612 441.796,364.112 459.5,355C 451.049,347.323 449.549,338.49 455,328.5C 458.016,325.651 460.85,322.651 463.5,319.5C 449.923,307.942 444.756,293.276 448,275.5C 454.382,256.46 467.548,245.293 487.5,242C 503.188,240.083 517.688,243.25 531,251.5C 540.616,244.279 551.449,240.945 563.5,241.5 Z"/></g>
<g><path style="opacity:1" fill="#a0a0a0" d="M 563.5,241.5 C 564.491,247.979 564.824,254.646 564.5,261.5C 560.167,261.5 555.833,261.5 551.5,261.5C 555.298,260.517 559.298,260.183 563.5,260.5C 563.5,254.167 563.5,247.833 563.5,241.5 Z"/></g>
<g><path style="opacity:1" fill="#fbfbfb" d="M 373.5,241.5 C 392.495,240.443 410.495,244.109 427.5,252.5C 423.701,259.131 419.201,265.131 414,270.5C 402.134,264.741 389.634,262.241 376.5,263C 367.145,265.327 362.979,271.16 364,280.5C 368.052,286.119 373.552,289.619 380.5,291C 394.431,293.135 407.431,297.801 419.5,305C 427.53,311.584 431.197,320.084 430.5,330.5C 430.021,348.607 421.021,360.107 403.5,365C 383.944,369.521 364.944,367.854 346.5,360C 341.959,358.237 337.959,355.737 334.5,352.5C 339.459,346.871 344.625,341.537 350,336.5C 359.647,342.549 370.147,345.882 381.5,346.5C 388.208,346.494 394.542,344.994 400.5,342C 407.435,334.997 407.102,328.331 399.5,322C 388.074,317.56 376.407,313.894 364.5,311C 343.894,304.721 335.061,290.887 338,269.5C 344.473,253.349 356.307,244.016 373.5,241.5 Z"/></g>
<g><path style="opacity:1" fill="#e53223" d="M 74.5,247.5 C 83.1731,247.334 91.8397,247.5 100.5,248C 101.416,248.374 102.25,248.874 103,249.5C 103.818,259.411 103.651,269.244 102.5,279C 97.4417,280.116 92.2751,280.616 87,280.5C 82.5,280.333 78,280.167 73.5,280C 73,279.5 72.5,279 72,278.5C 71.1679,268.816 71.3345,259.149 72.5,249.5C 73.5223,249.145 74.189,248.478 74.5,247.5 Z"/></g>
<g><path style="opacity:1" fill="#e73223" d="M 115.5,247.5 C 124.173,247.334 132.84,247.5 141.5,248C 142.416,248.374 143.25,248.874 144,249.5C 144.818,259.411 144.651,269.244 143.5,279C 138.609,280.114 133.609,280.614 128.5,280.5C 124.167,280.333 119.833,280.167 115.5,280C 114.692,279.692 114.025,279.192 113.5,278.5C 112.36,269.215 112.194,259.881 113,250.5C 114.045,249.627 114.878,248.627 115.5,247.5 Z"/></g>
<g><path style="opacity:1" fill="#762225" d="M 156.5,247.5 C 165.173,247.334 173.84,247.5 182.5,248C 183.416,248.374 184.25,248.874 185,249.5C 185.818,259.411 185.651,269.244 184.5,279C 175.268,280.611 165.935,280.945 156.5,280C 155.667,279.167 154.833,278.333 154,277.5C 153.333,268.5 153.333,259.5 154,250.5C 155.045,249.627 155.878,248.627 156.5,247.5 Z"/></g>
<g><path style="opacity:1" fill="#030303" d="M 491.5,260.5 C 514.171,259.336 524.338,270.003 522,292.5C 517.318,306.603 507.484,312.77 492.5,311C 477.538,305.935 471.038,295.435 473,279.5C 476.017,269.984 482.184,263.651 491.5,260.5 Z"/></g>
<g><path style="opacity:1" fill="#762225" d="M 115.5,288.5 C 124.173,288.334 132.84,288.5 141.5,289C 142.416,289.374 143.25,289.874 144,290.5C 144.667,299.833 144.667,309.167 144,318.5C 143.692,319.308 143.192,319.975 142.5,320.5C 133.548,321.639 124.548,321.805 115.5,321C 114.692,320.692 114.025,320.192 113.5,319.5C 112.36,310.215 112.194,300.881 113,291.5C 114.045,290.627 114.878,289.627 115.5,288.5 Z"/></g>
<g><path style="opacity:1" fill="#e73223" d="M 156.5,288.5 C 165.173,288.334 173.84,288.5 182.5,289C 183.416,289.374 184.25,289.874 185,290.5C 185.818,300.411 185.651,310.244 184.5,320C 179.609,321.114 174.609,321.614 169.5,321.5C 165.167,321.333 160.833,321.167 156.5,321C 155.692,320.692 155.025,320.192 154.5,319.5C 153.36,310.215 153.194,300.881 154,291.5C 155.045,290.627 155.878,289.627 156.5,288.5 Z"/></g>
<g><path style="opacity:1" fill="#782326" d="M 155.5,330.5 C 165.416,330.181 175.25,330.514 185,331.5C 185.818,341.411 185.651,351.244 184.5,361C 179.609,362.114 174.609,362.614 169.5,362.5C 155.245,365.744 149.911,360.244 153.5,346C 153.667,341.5 153.833,337 154,332.5C 154.717,331.956 155.217,331.289 155.5,330.5 Z"/></g>
<g><path style="opacity:1" fill="#050505" d="M 475.5,364.5 C 491.842,365.779 508.176,367.279 524.5,369C 533.228,370.715 536.728,375.881 535,384.5C 533.337,386.917 531.171,388.75 528.5,390C 510.899,395.491 493.233,395.824 475.5,391C 469.623,389.125 466.956,385.125 467.5,379C 467.838,372.841 470.504,368.008 475.5,364.5 Z"/></g>
</svg>
