<?xml version="1.0" encoding="UTF-8"?>
<!DOCTYPE svg PUBLIC "-//W3C//DTD SVG 1.1//EN" "http://www.w3.org/Graphics/SVG/1.1/DTD/svg11.dtd">
<svg xmlns="http://www.w3.org/2000/svg" version="1.1" width="914px" height="518px" style="shape-rendering:geometricPrecision; text-rendering:geometricPrecision; image-rendering:optimizeQuality; fill-rule:evenodd; clip-rule:evenodd" xmlns:xlink="http://www.w3.org/1999/xlink">
<g><path style="opacity:1" fill="#f2f2f2" d="M -0.5,-0.5 C 304.167,-0.5 608.833,-0.5 913.5,-0.5C 913.5,172.167 913.5,344.833 913.5,517.5C 608.833,517.5 304.167,517.5 -0.5,517.5C -0.5,344.833 -0.5,172.167 -0.5,-0.5 Z"/></g>
<g><path style="opacity:1" fill="#adbcdb" d="M 128.5,197.5 C 132.162,197.723 135.495,198.723 138.5,200.5C 134.838,200.277 131.505,199.277 128.5,197.5 Z"/></g>
<g><path style="opacity:1" fill="#a6b6d9" d="M 109.5,197.5 C 108.5,198.167 107.5,198.833 106.5,199.5C 103.402,199.756 100.402,200.422 97.5,201.5C 98.0577,200.21 99.0577,199.377 100.5,199C 103.478,198.304 106.478,197.804 109.5,197.5 Z"/></g>
<g><path style="opacity:1" fill="#7b95cb" d="M 124.5,197.5 C 118.357,197.27 112.357,197.936 106.5,199.5C 107.5,198.833 108.5,198.167 109.5,197.5C 114.6,196.2 119.6,196.2 124.5,197.5 Z"/></g>
<g><path style="opacity:1" fill="#5f7ec0" d="M 124.5,197.5 C 125.833,197.5 127.167,197.5 128.5,197.5C 131.505,199.277 134.838,200.277 138.5,200.5C 143.447,203.319 148.113,206.652 152.5,210.5C 153.08,212.749 154.413,214.415 156.5,215.5C 159.717,218 161.717,221.333 162.5,225.5C 163.06,227.801 163.56,230.134 164,232.5C 164.383,233.056 164.883,233.389 165.5,233.5C 165.328,234.492 165.662,235.158 166.5,235.5C 166.683,242.868 166.35,250.201 165.5,257.5C 164.962,259.117 164.629,260.784 164.5,262.5C 162.21,265.606 160.21,268.939 158.5,272.5C 156.147,274.86 154.147,277.527 152.5,280.5C 150.205,281.136 148.539,282.469 147.5,284.5C 146.508,284.328 145.842,284.662 145.5,285.5C 143.973,285.427 142.973,286.094 142.5,287.5C 141.609,288.11 140.609,288.443 139.5,288.5C 136.167,289.5 132.833,290.5 129.5,291.5C 121.833,291.5 114.167,291.5 106.5,291.5C 105.833,291.5 105.167,291.5 104.5,291.5C 98.1072,289.804 92.4405,286.804 87.5,282.5C 85.8333,280.167 83.8333,278.167 81.5,276.5C 79.7451,273.32 77.7451,270.32 75.5,267.5C 75.3404,265.847 74.6737,264.514 73.5,263.5C 73.5905,260.848 72.9238,258.515 71.5,256.5C 70.2427,248.813 70.2427,241.147 71.5,233.5C 72.7362,231.351 73.7362,229.018 74.5,226.5C 74.5,226.167 74.5,225.833 74.5,225.5C 76.9305,223.954 78.2639,221.621 78.5,218.5C 78.5,217.833 78.8333,217.5 79.5,217.5C 80.9744,216.564 81.9744,215.23 82.5,213.5C 82.5,212.833 82.8333,212.5 83.5,212.5C 84.8333,211.833 85.8333,210.833 86.5,209.5C 89.8103,207.518 92.8103,205.185 95.5,202.5C 95.8417,201.662 96.5084,201.328 97.5,201.5C 100.402,200.422 103.402,199.756 106.5,199.5C 112.357,197.936 118.357,197.27 124.5,197.5 Z"/></g>
<g><path style="opacity:1" fill="#a4b4d8" d="M 95.5,202.5 C 92.8103,205.185 89.8103,207.518 86.5,209.5C 86.4142,208.504 86.7476,207.671 87.5,207C 89.8171,204.843 92.4838,203.343 95.5,202.5 Z"/></g>
<g><path style="opacity:1" fill="#96a9d3" d="M 86.5,209.5 C 85.8333,210.833 84.8333,211.833 83.5,212.5C 83.5,210.5 84.5,209.5 86.5,209.5 Z"/></g>
<g><path style="opacity:1" fill="#c0cbe1" d="M 238.5,211.5 C 242.311,210.355 246.311,210.188 250.5,211C 251.252,211.671 251.586,212.504 251.5,213.5C 247.473,211.642 243.14,210.975 238.5,211.5 Z"/></g>
<g><path style="opacity:1" fill="#bfcae1" d="M 506.5,211.5 C 522.661,210.338 538.995,210.172 555.5,211C 556.252,211.671 556.586,212.504 556.5,213.5C 555.833,213.167 555.167,212.833 554.5,212.5C 538.675,211.504 522.675,211.17 506.5,211.5 Z"/></g>
<g><path style="opacity:1" fill="#96aad4" d="M 701.5,211.5 C 694.776,211.244 688.109,211.577 681.5,212.5C 681.5,212.167 681.5,211.833 681.5,211.5C 688.266,210.191 694.932,210.191 701.5,211.5 Z"/></g>
<g><path style="opacity:1" fill="#bec9e0" d="M 795.5,211.5 C 779.83,211.333 764.163,211.5 748.5,212C 747.956,212.717 747.289,213.217 746.5,213.5C 746.414,212.504 746.748,211.671 747.5,211C 763.672,210.172 779.672,210.339 795.5,211.5 Z"/></g>
<g><path style="opacity:1" fill="#91a5d2" d="M 152.5,210.5 C 154.587,211.585 155.92,213.251 156.5,215.5C 154.413,214.415 153.08,212.749 152.5,210.5 Z"/></g>
<g><path style="opacity:1" fill="#90a5d1" d="M 581.5,212.5 C 581.5,212.167 581.5,211.833 581.5,211.5C 585.514,211.334 589.514,211.501 593.5,212C 594.252,212.671 594.586,213.504 594.5,214.5C 590.473,212.642 586.14,211.975 581.5,212.5 Z"/></g>
<g><path style="opacity:1" fill="#c5cfe3" d="M 681.5,211.5 C 681.5,211.833 681.5,212.167 681.5,212.5C 679.297,212.604 677.297,213.27 675.5,214.5C 676.607,212.031 678.607,211.031 681.5,211.5 Z"/></g>
<g><path style="opacity:1" fill="#6281c1" d="M 701.5,211.5 C 705.495,212.001 709.162,213.334 712.5,215.5C 712.973,216.906 713.973,217.573 715.5,217.5C 715.427,219.027 716.094,220.027 717.5,220.5C 719.643,222.131 721.31,224.131 722.5,226.5C 722.5,227.833 722.5,229.167 722.5,230.5C 722.5,232.167 722.5,233.833 722.5,235.5C 718.167,235.5 713.833,235.5 709.5,235.5C 709.167,235.5 708.833,235.5 708.5,235.5C 708.721,231.132 707.054,227.798 703.5,225.5C 702.158,224.207 700.491,223.374 698.5,223C 693.411,222.174 688.411,222.508 683.5,224C 681.859,225.129 680.859,226.629 680.5,228.5C 679.662,228.842 679.328,229.508 679.5,230.5C 677.955,231.23 677.122,232.563 677,234.5C 676.176,243.343 676.343,252.01 677.5,260.5C 677.338,262.527 677.505,264.527 678,266.5C 678.383,267.056 678.883,267.389 679.5,267.5C 681.596,270.262 684.262,272.262 687.5,273.5C 694.45,275.824 700.617,274.49 706,269.5C 706.791,268.255 707.291,266.922 707.5,265.5C 707.84,263.321 708.84,261.488 710.5,260C 714.486,259.501 718.486,259.334 722.5,259.5C 723.634,261.966 723.801,264.633 723,267.5C 721.768,270.412 720.268,273.078 718.5,275.5C 715.272,278.888 711.605,281.554 707.5,283.5C 698.246,285.673 688.912,286.006 679.5,284.5C 671.298,280.628 665.965,274.294 663.5,265.5C 662.211,253.814 662.211,242.147 663.5,230.5C 663.5,230.167 663.5,229.833 663.5,229.5C 665.771,227.388 667.104,224.721 667.5,221.5C 669.543,218.457 672.21,216.124 675.5,214.5C 677.297,213.27 679.297,212.604 681.5,212.5C 688.109,211.577 694.776,211.244 701.5,211.5 Z"/></g>
<g><path style="opacity:1" fill="#a1b3d8" d="M 328.5,222.5 C 328.167,222.5 327.833,222.5 327.5,222.5C 327.81,219.287 327.477,216.287 326.5,213.5C 310.675,212.504 294.675,212.17 278.5,212.5C 278.5,236.167 278.5,259.833 278.5,283.5C 277.171,259.663 277.171,235.663 278.5,211.5C 294.456,210.349 310.456,210.182 326.5,211C 327,211.5 327.5,212 328,212.5C 328.498,215.817 328.665,219.15 328.5,222.5 Z"/></g>
<g><path style="opacity:1" fill="#6180c1" d="M 364.5,212.5 C 365.497,232.326 365.83,252.326 365.5,272.5C 377.167,272.5 388.833,272.5 400.5,272.5C 400.5,276.167 400.5,279.833 400.5,283.5C 384.5,283.5 368.5,283.5 352.5,283.5C 352.5,259.833 352.5,236.167 352.5,212.5C 356.5,212.5 360.5,212.5 364.5,212.5 Z"/></g>
<g><path style="opacity:1" fill="#afbede" d="M 364.5,212.5 C 364.5,212.167 364.5,211.833 364.5,211.5C 366.488,231.139 367.155,251.139 366.5,271.5C 378.171,271.333 389.838,271.5 401.5,272C 402.131,273.906 402.464,275.906 402.5,278C 402.453,280.295 401.787,282.129 400.5,283.5C 400.5,279.833 400.5,276.167 400.5,272.5C 388.833,272.5 377.167,272.5 365.5,272.5C 365.83,252.326 365.497,232.326 364.5,212.5 Z"/></g>
<g><path style="opacity:1" fill="#c4cee3" d="M 420.5,212.5 C 420.5,229.833 420.5,247.167 420.5,264.5C 419.732,263.737 419.232,262.737 419,261.5C 418.833,253.333 418.667,245.167 418.5,237C 418.502,228.472 419.169,220.305 420.5,212.5 Z"/></g>
<g><path style="opacity:1" fill="#c3cde2" d="M 478.5,212.5 C 479.117,212.611 479.617,212.944 480,213.5C 480.667,229.5 480.667,245.5 480,261.5C 479.79,263.058 479.29,264.391 478.5,265.5C 478.5,247.833 478.5,230.167 478.5,212.5 Z"/></g>
<g><path style="opacity:1" fill="#aabada" d="M 506.5,211.5 C 522.675,211.17 538.675,211.504 554.5,212.5C 538.256,212.175 522.089,212.509 506,213.5C 505.5,236.831 505.333,260.164 505.5,283.5C 504.337,260.004 504.17,236.337 505,212.5C 505.383,211.944 505.883,211.611 506.5,211.5 Z"/></g>
<g><path style="opacity:1" fill="#6280c1" d="M 581.5,212.5 C 586.14,211.975 590.473,212.642 594.5,214.5C 597.458,218.158 600.124,222.158 602.5,226.5C 602.427,228.027 603.094,229.027 604.5,229.5C 608.331,234.489 611.664,239.822 614.5,245.5C 614.908,249.573 616.908,252.573 620.5,254.5C 621.401,255.29 622.068,256.29 622.5,257.5C 622.56,258.043 622.893,258.376 623.5,258.5C 624.333,243.511 624.833,228.511 625,213.5C 628.73,212.54 632.563,212.207 636.5,212.5C 636.5,236.167 636.5,259.833 636.5,283.5C 632.434,283.693 628.434,283.36 624.5,282.5C 622.71,280.728 621.377,278.728 620.5,276.5C 613.833,266.5 607.167,256.5 600.5,246.5C 600.262,244.596 599.262,243.262 597.5,242.5C 597.443,241.391 597.11,240.391 596.5,239.5C 596.179,237.952 595.179,237.285 593.5,237.5C 593.5,252.833 593.5,268.167 593.5,283.5C 590.038,284.482 586.371,284.815 582.5,284.5C 581.833,284.167 581.167,283.833 580.5,283.5C 580.169,259.661 580.502,235.994 581.5,212.5 Z"/></g>
<g><path style="opacity:1" fill="#7d96cb" d="M 207.5,214.5 C 203.6,213.57 199.6,213.237 195.5,213.5C 195.5,236.833 195.5,260.167 195.5,283.5C 199.167,283.5 202.833,283.5 206.5,283.5C 206.5,283.833 206.5,284.167 206.5,284.5C 202.233,284.797 198.066,284.464 194,283.5C 193.333,259.833 193.333,236.167 194,212.5C 198.079,211.371 202.245,211.204 206.5,212C 207.252,212.671 207.586,213.504 207.5,214.5 Z"/></g>
<g><path style="opacity:1" fill="#6280c1" d="M 238.5,211.5 C 243.14,210.975 247.473,211.642 251.5,213.5C 251.667,236.836 251.5,260.169 251,283.5C 246.934,284.464 242.767,284.797 238.5,284.5C 238.262,282.596 237.262,281.262 235.5,280.5C 227.328,266.817 218.662,253.484 209.5,240.5C 209.631,239.624 209.298,238.957 208.5,238.5C 207.833,253.661 207.167,268.661 206.5,283.5C 202.833,283.5 199.167,283.5 195.5,283.5C 195.5,260.167 195.5,236.833 195.5,213.5C 199.6,213.237 203.6,213.57 207.5,214.5C 209.262,215.262 210.262,216.596 210.5,218.5C 210.738,220.404 211.738,221.738 213.5,222.5C 214.345,223.671 215.011,225.005 215.5,226.5C 216.411,230.25 218.411,233.25 221.5,235.5C 225.331,240.489 228.664,245.822 231.5,251.5C 231.738,253.404 232.738,254.738 234.5,255.5C 234.5,256.833 234.5,258.167 234.5,259.5C 235.833,259.5 237.167,259.5 238.5,259.5C 238.5,244.167 238.5,228.833 238.5,213.5C 238.5,212.833 238.5,212.167 238.5,211.5 Z"/></g>
<g><path style="opacity:1" fill="#b2c0dc" d="M 238.5,211.5 C 238.5,212.167 238.5,212.833 238.5,213.5C 237.833,228.339 237.167,243.339 236.5,258.5C 235.893,258.376 235.56,258.043 235.5,257.5C 236.331,242.672 236.831,227.672 237,212.5C 237.383,211.944 237.883,211.611 238.5,211.5 Z"/></g>
<g><path style="opacity:1" fill="#7a94c9" d="M 238.5,213.5 C 238.5,228.833 238.5,244.167 238.5,259.5C 237.167,259.5 235.833,259.5 234.5,259.5C 234.5,258.167 234.5,256.833 234.5,255.5C 235.338,255.842 235.672,256.508 235.5,257.5C 235.56,258.043 235.893,258.376 236.5,258.5C 237.167,243.339 237.833,228.339 238.5,213.5 Z"/></g>
<g><path style="opacity:1" fill="#5f7ec0" d="M 326.5,213.5 C 327.477,216.287 327.81,219.287 327.5,222.5C 327.5,223.167 327.167,223.5 326.5,223.5C 314.833,223.5 303.167,223.5 291.5,223.5C 291.176,230.354 291.509,237.021 292.5,243.5C 302.992,244.33 313.659,244.83 324.5,245C 325.456,248.394 325.789,251.894 325.5,255.5C 313.988,255.172 302.654,255.505 291.5,256.5C 290.507,265.318 290.173,274.318 290.5,283.5C 286.833,283.5 283.167,283.5 279.5,283.5C 279.5,260.167 279.5,236.833 279.5,213.5C 295.167,213.5 310.833,213.5 326.5,213.5 Z"/></g>
<g><path style="opacity:1" fill="#6481c1" d="M 461.5,268.5 C 463.834,266.824 464.834,264.491 464.5,261.5C 464.333,245.163 464.5,228.83 465,212.5C 469.6,211.177 474.1,211.177 478.5,212.5C 478.5,230.167 478.5,247.833 478.5,265.5C 477.766,266.708 477.433,268.041 477.5,269.5C 475.554,273.605 472.888,277.272 469.5,280.5C 467.326,280.75 465.659,281.75 464.5,283.5C 463.391,283.557 462.391,283.89 461.5,284.5C 453.833,285.833 446.167,285.833 438.5,284.5C 428.6,281.271 422.6,274.604 420.5,264.5C 420.5,247.167 420.5,229.833 420.5,212.5C 424.9,211.177 429.4,211.177 434,212.5C 434.333,228.833 434.667,245.167 435,261.5C 436.538,269.54 441.371,273.207 449.5,272.5C 451.833,272.333 454.167,272.167 456.5,272C 458.047,270.613 459.713,269.447 461.5,268.5 Z"/></g>
<g><path style="opacity:1" fill="#6381c2" d="M 554.5,212.5 C 555.167,212.833 555.833,213.167 556.5,213.5C 556.665,216.518 556.498,219.518 556,222.5C 555.617,223.056 555.117,223.389 554.5,223.5C 542.833,223.5 531.167,223.5 519.5,223.5C 519.5,229.833 519.5,236.167 519.5,242.5C 530.5,242.5 541.5,242.5 552.5,242.5C 553.833,246.167 553.833,249.833 552.5,253.5C 541.5,253.5 530.5,253.5 519.5,253.5C 519.5,259.833 519.5,266.167 519.5,272.5C 531.326,273.331 543.326,273.831 555.5,274C 556.451,277.057 556.784,280.223 556.5,283.5C 556.5,284.167 556.167,284.5 555.5,284.5C 538.756,284.818 522.089,284.485 505.5,283.5C 505.333,260.164 505.5,236.831 506,213.5C 522.089,212.509 538.256,212.175 554.5,212.5 Z"/></g>
<g><path style="opacity:1" fill="#a6b6da" d="M 636.5,212.5 C 632.563,212.207 628.73,212.54 625,213.5C 624.833,228.511 624.333,243.511 623.5,258.5C 622.893,258.376 622.56,258.043 622.5,257.5C 623.331,242.672 623.831,227.672 624,212.5C 625.996,210.941 628.329,210.274 631,210.5C 633.295,210.547 635.129,211.213 636.5,212.5 Z"/></g>
<g><path style="opacity:1" fill="#6281c1" d="M 795.5,211.5 C 796.117,211.611 796.617,211.944 797,212.5C 797.808,216.027 797.641,219.36 796.5,222.5C 784.495,222.333 772.495,222.5 760.5,223C 759.174,229.266 759.174,235.432 760.5,241.5C 760.5,242.167 760.833,242.5 761.5,242.5C 771.987,243.494 782.654,243.828 793.5,243.5C 793.5,246.5 793.5,249.5 793.5,252.5C 782.495,252.333 771.495,252.5 760.5,253C 759.174,259.599 759.174,266.099 760.5,272.5C 772.326,273.331 784.326,273.831 796.5,274C 797.451,277.057 797.784,280.223 797.5,283.5C 797.5,284.167 797.167,284.5 796.5,284.5C 779.756,284.818 763.089,284.485 746.5,283.5C 746.5,260.167 746.5,236.833 746.5,213.5C 747.289,213.217 747.956,212.717 748.5,212C 764.163,211.5 779.83,211.333 795.5,211.5 Z"/></g>
<g><path style="opacity:1" fill="#6a87c5" d="M 326.5,213.5 C 310.833,213.5 295.167,213.5 279.5,213.5C 279.5,236.833 279.5,260.167 279.5,283.5C 283.167,283.5 286.833,283.5 290.5,283.5C 290.173,274.318 290.507,265.318 291.5,256.5C 291.5,265.5 291.5,274.5 291.5,283.5C 287.167,284.833 282.833,284.833 278.5,283.5C 278.5,259.833 278.5,236.167 278.5,212.5C 294.675,212.17 310.675,212.504 326.5,213.5 Z"/></g>
<g><path style="opacity:1" fill="#b8c5df" d="M 712.5,215.5 C 714.027,215.427 715.027,216.094 715.5,217.5C 713.973,217.573 712.973,216.906 712.5,215.5 Z"/></g>
<g><path style="opacity:1" fill="#93a8d2" d="M 82.5,213.5 C 81.9744,215.23 80.9744,216.564 79.5,217.5C 79.5544,215.368 80.5544,214.035 82.5,213.5 Z"/></g>
<g><path style="opacity:1" fill="#839bcd" d="M 364.5,211.5 C 364.5,211.833 364.5,212.167 364.5,212.5C 360.5,212.5 356.5,212.5 352.5,212.5C 352.5,236.167 352.5,259.833 352.5,283.5C 368.5,283.5 384.5,283.5 400.5,283.5C 384.098,284.831 367.598,284.831 351,283.5C 350.333,259.833 350.333,236.167 351,212.5C 355.401,211.533 359.901,211.2 364.5,211.5 Z"/></g>
<g><path style="opacity:1" fill="#d1d8e8" d="M 581.5,211.5 C 581.5,211.833 581.5,212.167 581.5,212.5C 580.502,235.994 580.169,259.661 580.5,283.5C 579.833,271.671 579.5,259.671 579.5,247.5C 579.501,235.148 580.168,223.148 581.5,211.5 Z"/></g>
<g><path style="opacity:1" fill="#7e96cc" d="M 636.5,212.5 C 637.117,212.611 637.617,212.944 638,213.5C 638.667,236.833 638.667,260.167 638,283.5C 633.501,284.806 629.001,284.806 624.5,283.5C 624.5,283.167 624.5,282.833 624.5,282.5C 628.434,283.36 632.434,283.693 636.5,283.5C 636.5,259.833 636.5,236.167 636.5,212.5 Z"/></g>
<g><path style="opacity:1" fill="#96aad3" d="M 715.5,217.5 C 716.906,217.973 717.573,218.973 717.5,220.5C 716.094,220.027 715.427,219.027 715.5,217.5 Z"/></g>
<g><path style="opacity:1" fill="#9eb0d5" d="M 210.5,218.5 C 212.262,219.262 213.262,220.596 213.5,222.5C 211.738,221.738 210.738,220.404 210.5,218.5 Z"/></g>
<g><path style="opacity:1" fill="#bcc8e0" d="M 703.5,225.5 C 698.301,223.867 692.967,223.367 687.5,224C 684.767,224.904 682.433,226.404 680.5,228.5C 680.859,226.629 681.859,225.129 683.5,224C 688.411,222.508 693.411,222.174 698.5,223C 700.491,223.374 702.158,224.207 703.5,225.5 Z"/></g>
<g><path style="opacity:1" fill="#849cce" d="M 796.5,222.5 C 784.833,223.167 773.167,223.833 761.5,224.5C 760.511,229.975 760.178,235.642 760.5,241.5C 759.174,235.432 759.174,229.266 760.5,223C 772.495,222.5 784.495,222.333 796.5,222.5 Z"/></g>
<g><path style="opacity:1" fill="#99add5" d="M 326.5,223.5 C 315.346,224.495 304.012,224.828 292.5,224.5C 292.5,230.833 292.5,237.167 292.5,243.5C 291.509,237.021 291.176,230.354 291.5,223.5C 303.167,223.5 314.833,223.5 326.5,223.5 Z"/></g>
<g><path style="opacity:1" fill="#8a9fcf" d="M 78.5,218.5 C 78.2639,221.621 76.9305,223.954 74.5,225.5C 75.0787,222.669 76.412,220.336 78.5,218.5 Z"/></g>
<g><path style="opacity:1" fill="#dadfea" d="M 327.5,222.5 C 327.833,222.5 328.167,222.5 328.5,222.5C 328.5,223.5 328.5,224.5 328.5,225.5C 316.833,225.5 305.167,225.5 293.5,225.5C 293.211,231.591 293.545,237.591 294.5,243.5C 293.833,243.5 293.167,243.5 292.5,243.5C 292.5,237.167 292.5,230.833 292.5,224.5C 304.012,224.828 315.346,224.495 326.5,223.5C 327.167,223.5 327.5,223.167 327.5,222.5 Z"/></g>
<g><path style="opacity:1" fill="#96a9d4" d="M 667.5,221.5 C 667.104,224.721 665.771,227.388 663.5,229.5C 663.896,226.279 665.229,223.612 667.5,221.5 Z"/></g>
<g><path style="opacity:1" fill="#9caed5" d="M 602.5,226.5 C 603.906,226.973 604.573,227.973 604.5,229.5C 603.094,229.027 602.427,228.027 602.5,226.5 Z"/></g>
<g><path style="opacity:1" fill="#adbcdb" d="M 74.5,226.5 C 73.7362,229.018 72.7362,231.351 71.5,233.5C 71.179,230.423 72.179,228.09 74.5,226.5 Z"/></g>
<g><path style="opacity:1" fill="#889ecf" d="M 162.5,225.5 C 163.117,225.611 163.617,225.944 164,226.5C 164.44,228.866 164.94,231.199 165.5,233.5C 164.883,233.389 164.383,233.056 164,232.5C 163.56,230.134 163.06,227.801 162.5,225.5 Z"/></g>
<g><path style="opacity:1" fill="#869ccd" d="M 215.5,226.5 C 217.86,229.218 219.86,232.218 221.5,235.5C 218.411,233.25 216.411,230.25 215.5,226.5 Z"/></g>
<g><path style="opacity:1" fill="#c0cae2" d="M 703.5,225.5 C 707.054,227.798 708.721,231.132 708.5,235.5C 707.073,232.123 705.406,228.79 703.5,225.5 Z"/></g>
<g><path style="opacity:1" fill="#7f98cd" d="M 722.5,230.5 C 723.461,232.265 723.795,234.265 723.5,236.5C 718.833,236.5 714.167,236.5 709.5,236.5C 709.5,236.167 709.5,235.833 709.5,235.5C 713.833,235.5 718.167,235.5 722.5,235.5C 722.5,233.833 722.5,232.167 722.5,230.5 Z"/></g>
<g><path style="opacity:1" fill="#b7c4e0" d="M 722.5,226.5 C 724.217,229.845 724.884,233.511 724.5,237.5C 719.305,237.821 714.305,237.487 709.5,236.5C 714.167,236.5 718.833,236.5 723.5,236.5C 723.795,234.265 723.461,232.265 722.5,230.5C 722.5,229.167 722.5,227.833 722.5,226.5 Z"/></g>
<g><path style="opacity:1" fill="#c7d0e4" d="M 554.5,223.5 C 543.346,224.495 532.012,224.828 520.5,224.5C 520.5,229.833 520.5,235.167 520.5,240.5C 531.552,239.857 542.219,240.524 552.5,242.5C 541.5,242.5 530.5,242.5 519.5,242.5C 519.5,236.167 519.5,229.833 519.5,223.5C 531.167,223.5 542.833,223.5 554.5,223.5 Z"/></g>
<g><path style="opacity:1" fill="#7e96cc" d="M 596.5,239.5 C 594.839,253.972 593.839,268.638 593.5,283.5C 593.5,268.167 593.5,252.833 593.5,237.5C 595.179,237.285 596.179,237.952 596.5,239.5 Z"/></g>
<g><path style="opacity:1" fill="#bec9e1" d="M 679.5,230.5 C 678.55,240.448 678.216,250.448 678.5,260.5C 678.167,260.5 677.833,260.5 677.5,260.5C 676.343,252.01 676.176,243.343 677,234.5C 677.122,232.563 677.955,231.23 679.5,230.5 Z"/></g>
<g><path style="opacity:1" fill="#abbadb" d="M 761.5,224.5 C 761.5,230.167 761.5,235.833 761.5,241.5C 772.346,241.172 783.013,241.506 793.5,242.5C 782.833,242.5 772.167,242.5 761.5,242.5C 760.833,242.5 760.5,242.167 760.5,241.5C 760.178,235.642 760.511,229.975 761.5,224.5 Z"/></g>
<g><path style="opacity:1" fill="#bcc8e0" d="M 209.5,240.5 C 209.161,255.362 208.161,270.028 206.5,284.5C 206.5,284.167 206.5,283.833 206.5,283.5C 207.167,268.661 207.833,253.661 208.5,238.5C 209.298,238.957 209.631,239.624 209.5,240.5 Z"/></g>
<g><path style="opacity:1" fill="#7590c8" d="M 761.5,242.5 C 772.167,242.5 782.833,242.5 793.5,242.5C 794.117,242.611 794.617,242.944 795,243.5C 795.805,246.696 795.638,249.696 794.5,252.5C 794.167,252.5 793.833,252.5 793.5,252.5C 793.5,249.5 793.5,246.5 793.5,243.5C 782.654,243.828 771.987,243.494 761.5,242.5 Z"/></g>
<g><path style="opacity:1" fill="#98abd5" d="M 292.5,243.5 C 293.167,243.5 293.833,243.5 294.5,243.5C 304.839,243.334 315.172,243.5 325.5,244C 326.821,247.934 326.821,251.767 325.5,255.5C 325.789,251.894 325.456,248.394 324.5,245C 313.659,244.83 302.992,244.33 292.5,243.5 Z"/></g>
<g><path style="opacity:1" fill="#c7d1e4" d="M 596.5,239.5 C 597.11,240.391 597.443,241.391 597.5,242.5C 596.883,242.389 596.383,242.056 596,241.5C 595.667,255.833 595.333,270.167 595,284.5C 590.733,285.822 586.566,285.822 582.5,284.5C 586.371,284.815 590.038,284.482 593.5,283.5C 593.839,268.638 594.839,253.972 596.5,239.5 Z"/></g>
<g><path style="opacity:1" fill="#b3c1dd" d="M 597.5,242.5 C 599.262,243.262 600.262,244.596 600.5,246.5C 598.738,245.738 597.738,244.404 597.5,242.5 Z"/></g>
<g><path style="opacity:1" fill="#b9c5df" d="M 663.5,230.5 C 662.211,242.147 662.211,253.814 663.5,265.5C 662.778,265.082 662.278,264.416 662,263.5C 661.333,252.833 661.333,242.167 662,231.5C 662.383,230.944 662.883,230.611 663.5,230.5 Z"/></g>
<g><path style="opacity:1" fill="#849bcd" d="M 614.5,245.5 C 616.86,248.218 618.86,251.218 620.5,254.5C 616.908,252.573 614.908,249.573 614.5,245.5 Z"/></g>
<g><path style="opacity:1" fill="#becae1" d="M 166.5,235.5 C 167.653,241.653 167.82,247.986 167,254.5C 166.768,255.737 166.268,256.737 165.5,257.5C 166.35,250.201 166.683,242.868 166.5,235.5 Z"/></g>
<g><path style="opacity:1" fill="#89a1d1" d="M 793.5,252.5 C 793.833,252.5 794.167,252.5 794.5,252.5C 783.5,253.167 772.5,253.833 761.5,254.5C 760.51,260.31 760.177,266.31 760.5,272.5C 759.174,266.099 759.174,259.599 760.5,253C 771.495,252.5 782.495,252.333 793.5,252.5 Z"/></g>
<g><path style="opacity:1" fill="#94a8d2" d="M 231.5,251.5 C 233.262,252.262 234.262,253.596 234.5,255.5C 232.738,254.738 231.738,253.404 231.5,251.5 Z"/></g>
<g><path style="opacity:1" fill="#94a9d4" d="M 325.5,255.5 C 325.5,255.833 325.5,256.167 325.5,256.5C 314.5,256.5 303.5,256.5 292.5,256.5C 292.5,265.167 292.5,273.833 292.5,282.5C 292.5,283.167 292.167,283.5 291.5,283.5C 291.5,274.5 291.5,265.5 291.5,256.5C 302.654,255.505 313.988,255.172 325.5,255.5 Z"/></g>
<g><path style="opacity:1" fill="#d4dae8" d="M 325.5,256.5 C 315.013,257.494 304.346,257.828 293.5,257.5C 293.826,266.017 293.493,274.35 292.5,282.5C 292.5,273.833 292.5,265.167 292.5,256.5C 303.5,256.5 314.5,256.5 325.5,256.5 Z"/></g>
<g><path style="opacity:1" fill="#bfcbe2" d="M 722.5,259.5 C 718.486,259.334 714.486,259.501 710.5,260C 708.84,261.488 707.84,263.321 707.5,265.5C 707.167,265.5 706.833,265.5 706.5,265.5C 706.549,262.901 707.549,260.734 709.5,259C 714.02,258.186 718.354,258.353 722.5,259.5 Z"/></g>
<g><path style="opacity:1" fill="#b4c1de" d="M 71.5,256.5 C 72.9238,258.515 73.5905,260.848 73.5,263.5C 72.0762,261.485 71.4095,259.152 71.5,256.5 Z"/></g>
<g><path style="opacity:1" fill="#c0cbe2" d="M 164.5,262.5 C 164.018,266.805 162.018,270.139 158.5,272.5C 160.21,268.939 162.21,265.606 164.5,262.5 Z"/></g>
<g><path style="opacity:1" fill="#94a8d3" d="M 464.5,261.5 C 464.834,264.491 463.834,266.824 461.5,268.5C 461.935,265.843 462.935,263.509 464.5,261.5 Z"/></g>
<g><path style="opacity:1" fill="#8fa4d1" d="M 677.5,260.5 C 677.833,260.5 678.167,260.5 678.5,260.5C 678.993,262.806 679.326,265.139 679.5,267.5C 678.883,267.389 678.383,267.056 678,266.5C 677.505,264.527 677.338,262.527 677.5,260.5 Z"/></g>
<g><path style="opacity:1" fill="#c0cae2" d="M 75.5,267.5 C 77.7451,270.32 79.7451,273.32 81.5,276.5C 77.7445,274.652 75.7445,271.652 75.5,267.5 Z"/></g>
<g><path style="opacity:1" fill="#d2d9e7" d="M 552.5,253.5 C 542.013,254.494 531.346,254.828 520.5,254.5C 520.5,260.167 520.5,265.833 520.5,271.5C 532.345,271.172 544.012,271.505 555.5,272.5C 543.5,272.5 531.5,272.5 519.5,272.5C 519.5,266.167 519.5,259.833 519.5,253.5C 530.5,253.5 541.5,253.5 552.5,253.5 Z"/></g>
<g><path style="opacity:1" fill="#d1d8e7" d="M 761.5,254.5 C 761.5,260.167 761.5,265.833 761.5,271.5C 773.345,271.172 785.012,271.505 796.5,272.5C 784.5,272.5 772.5,272.5 760.5,272.5C 760.177,266.31 760.51,260.31 761.5,254.5 Z"/></g>
<g><path style="opacity:1" fill="#93a7d3" d="M 519.5,272.5 C 531.5,272.5 543.5,272.5 555.5,272.5C 556.117,272.611 556.617,272.944 557,273.5C 557.808,277.027 557.641,280.36 556.5,283.5C 556.784,280.223 556.451,277.057 555.5,274C 543.326,273.831 531.326,273.331 519.5,272.5 Z"/></g>
<g><path style="opacity:1" fill="#8ea3d1" d="M 760.5,272.5 C 772.5,272.5 784.5,272.5 796.5,272.5C 797.787,273.871 798.453,275.705 798.5,278C 798.494,280.033 798.161,281.866 797.5,283.5C 797.784,280.223 797.451,277.057 796.5,274C 784.326,273.831 772.326,273.331 760.5,272.5 Z"/></g>
<g><path style="opacity:1" fill="#839bcd" d="M 706.5,265.5 C 706.833,265.5 707.167,265.5 707.5,265.5C 707.291,266.922 706.791,268.255 706,269.5C 700.617,274.49 694.45,275.824 687.5,273.5C 695.96,275.427 702.293,272.76 706.5,265.5 Z"/></g>
<g><path style="opacity:1" fill="#b7c4df" d="M 81.5,276.5 C 83.8333,278.167 85.8333,280.167 87.5,282.5C 84.5,281.5 82.5,279.5 81.5,276.5 Z"/></g>
<g><path style="opacity:1" fill="#c5cfe4" d="M 477.5,269.5 C 477.007,274.845 474.34,278.512 469.5,280.5C 472.888,277.272 475.554,273.605 477.5,269.5 Z"/></g>
<g><path style="opacity:1" fill="#c3cde3" d="M 620.5,276.5 C 621.377,278.728 622.71,280.728 624.5,282.5C 624.5,282.833 624.5,283.167 624.5,283.5C 621.482,282.145 620.149,279.812 620.5,276.5 Z"/></g>
<g><path style="opacity:1" fill="#b6c3df" d="M 152.5,280.5 C 151.421,282.543 149.754,283.876 147.5,284.5C 148.539,282.469 150.205,281.136 152.5,280.5 Z"/></g>
<g><path style="opacity:1" fill="#b8c4df" d="M 469.5,280.5 C 468.341,282.25 466.674,283.25 464.5,283.5C 465.659,281.75 467.326,280.75 469.5,280.5 Z"/></g>
<g><path style="opacity:1" fill="#b8c4df" d="M 235.5,280.5 C 237.262,281.262 238.262,282.596 238.5,284.5C 236.738,283.738 235.738,282.404 235.5,280.5 Z"/></g>
<g><path style="opacity:1" fill="#cfd7e7" d="M 718.5,275.5 C 716.523,280.475 712.857,283.141 707.5,283.5C 711.605,281.554 715.272,278.888 718.5,275.5 Z"/></g>
<g><path style="opacity:1" fill="#c4cee4" d="M 505.5,283.5 C 522.089,284.485 538.756,284.818 555.5,284.5C 547.34,285.166 539.007,285.5 530.5,285.5C 521.806,285.498 513.472,284.831 505.5,283.5 Z"/></g>
<g><path style="opacity:1" fill="#c4cee4" d="M 746.5,283.5 C 763.089,284.485 779.756,284.818 796.5,284.5C 788.34,285.166 780.007,285.5 771.5,285.5C 762.806,285.498 754.472,284.831 746.5,283.5 Z"/></g>
<g><path style="opacity:1" fill="#b6c3de" d="M 438.5,284.5 C 446.167,285.833 453.833,285.833 461.5,284.5C 457.946,285.984 454.112,286.651 450,286.5C 445.888,286.651 442.054,285.984 438.5,284.5 Z"/></g>
<g><path style="opacity:1" fill="#c7d0e4" d="M 707.5,283.5 C 705.974,285.13 703.974,285.963 701.5,286C 694.5,286.667 687.5,286.667 680.5,286C 679.944,285.617 679.611,285.117 679.5,284.5C 688.912,286.006 698.246,285.673 707.5,283.5 Z"/></g>
<g><path style="opacity:1" fill="#b6c3df" d="M 145.5,285.5 C 145.027,286.906 144.027,287.573 142.5,287.5C 142.973,286.094 143.973,285.427 145.5,285.5 Z"/></g>
<g><path style="opacity:1" fill="#a7b7d9" d="M 139.5,288.5 C 137.465,290.195 135.132,291.528 132.5,292.5C 131.5,292.5 130.5,292.5 129.5,292.5C 129.5,292.167 129.5,291.833 129.5,291.5C 132.833,290.5 136.167,289.5 139.5,288.5 Z"/></g>
<g><path style="opacity:1" fill="#728ec9" d="M 106.5,291.5 C 114.167,291.5 121.833,291.5 129.5,291.5C 129.5,291.833 129.5,292.167 129.5,292.5C 125.516,292.928 121.516,293.261 117.5,293.5C 113.553,293.637 109.886,292.97 106.5,291.5 Z"/></g>
<g><path style="opacity:1" fill="#c9d2e5" d="M 104.5,291.5 C 105.167,291.5 105.833,291.5 106.5,291.5C 109.886,292.97 113.553,293.637 117.5,293.5C 121.516,293.261 125.516,292.928 129.5,292.5C 130.5,292.5 131.5,292.5 132.5,292.5C 128.091,293.979 123.424,294.646 118.5,294.5C 115.5,294.333 112.5,294.167 109.5,294C 107.347,293.901 105.681,293.067 104.5,291.5 Z"/></g>
</svg>
