<?xml version="1.0" encoding="UTF-8"?>
<!DOCTYPE svg PUBLIC "-//W3C//DTD SVG 1.1//EN" "http://www.w3.org/Graphics/SVG/1.1/DTD/svg11.dtd">
<svg xmlns="http://www.w3.org/2000/svg" version="1.1" width="2048px" height="2048px" style="shape-rendering:geometricPrecision; text-rendering:geometricPrecision; image-rendering:optimizeQuality; fill-rule:evenodd; clip-rule:evenodd" xmlns:xlink="http://www.w3.org/1999/xlink">
<g><path style="opacity:1" fill="#fefefe" d="M -0.5,-0.5 C 682.167,-0.5 1364.83,-0.5 2047.5,-0.5C 2047.5,682.167 2047.5,1364.83 2047.5,2047.5C 1364.83,2047.5 682.167,2047.5 -0.5,2047.5C -0.5,1364.83 -0.5,682.167 -0.5,-0.5 Z"/></g>
<g><path style="opacity:1" fill="#a4ce3a" d="M 1346.5,168.5 C 1398.43,165.543 1437.26,186.543 1463,231.5C 1482.82,270.097 1491.16,311.097 1488,354.5C 1484.92,399.758 1476.92,444.092 1464,487.5C 1446.64,542.915 1424.97,596.582 1399,648.5C 1398.35,649.696 1397.85,649.696 1397.5,648.5C 1420.88,583.873 1437.38,517.539 1447,449.5C 1450.02,425.246 1451.02,400.913 1450,376.5C 1447.59,336.817 1430.09,305.984 1397.5,284C 1372.69,270.99 1346.69,267.99 1319.5,275C 1294.13,281.685 1270.13,291.685 1247.5,305C 1192.39,339.741 1142.22,380.908 1097,428.5C 1009.88,521.003 939.875,625.337 887,741.5C 859.339,802.482 841.006,866.149 832,932.5C 827.537,970.097 829.204,1007.43 837,1044.5C 855.096,1108.65 896.929,1133.48 962.5,1119C 992.781,1108.64 993.114,1109.64 963.5,1122C 933.944,1134.19 903.277,1138.53 871.5,1135C 837.998,1127.83 813.498,1108.99 798,1078.5C 786.843,1054.06 780.51,1028.39 779,1001.5C 776.266,935.968 784.933,871.968 805,809.5C 824.735,747.967 849.735,688.634 880,631.5C 929.142,539.497 986.475,453.164 1052,372.5C 1097.51,319.311 1148.34,272.145 1204.5,231C 1238.06,206.554 1274.72,187.887 1314.5,175C 1325.16,172.101 1335.83,169.935 1346.5,168.5 Z"/></g>
<g><path style="opacity:1" fill="#0396d9" d="M 1100.5,742.5 C 1126.85,741.836 1152.18,746.67 1176.5,757C 1211.67,773.069 1244,793.403 1273.5,818C 1323.84,861.656 1367.67,910.822 1405,965.5C 1488.7,1089.93 1552.37,1224.26 1596,1368.5C 1616.77,1442.11 1626.1,1517.11 1624,1593.5C 1622.43,1628.77 1614.43,1662.43 1600,1694.5C 1580.19,1732.17 1549.02,1753 1506.5,1757C 1473.91,1759.29 1442.91,1753.29 1413.5,1739C 1379.03,1721.77 1347.7,1700.11 1319.5,1674C 1259.29,1616.2 1208.79,1551.36 1168,1479.5C 1215.43,1540.93 1269.59,1595.76 1330.5,1644C 1348.39,1656.78 1367.39,1667.78 1387.5,1677C 1411.05,1685.49 1435.05,1686.82 1459.5,1681C 1490.48,1670.68 1511.65,1650.18 1523,1619.5C 1531.87,1595.63 1536.87,1570.97 1538,1545.5C 1540.11,1494.68 1536.11,1444.35 1526,1394.5C 1494.74,1241.32 1434.41,1100.98 1345,973.5C 1314.89,932.197 1280.72,894.363 1242.5,860C 1214.76,835.964 1184.1,816.297 1150.5,801C 1070.28,769.358 1019.45,795.192 998,878.5C 1000.16,841.856 1012.16,808.856 1034,779.5C 1051.7,758.906 1073.86,746.573 1100.5,742.5 Z"/></g>
<g><path style="opacity:1" fill="#ec8687" d="M 550.5,859.5 C 553.304,858.362 556.304,858.195 559.5,859C 556.832,859.567 554.166,860.067 551.5,860.5C 551.5,859.833 551.167,859.5 550.5,859.5 Z"/></g>
<g><path style="opacity:1" fill="#db2629" d="M 550.5,859.5 C 551.167,859.5 551.5,859.833 551.5,860.5C 487.046,872.484 424.379,890.651 363.5,915C 333.948,927.1 306.615,942.766 281.5,962C 252.462,987.786 239.962,1019.95 244,1058.5C 250.732,1084.8 264.232,1106.97 284.5,1125C 310.83,1147.28 339.83,1165.62 371.5,1180C 448.162,1213.13 527.828,1235.8 610.5,1248C 728.416,1265.85 846.083,1264.51 963.5,1244C 1027.25,1232.31 1086.92,1209.98 1142.5,1177C 1162.12,1164.39 1179.62,1149.22 1195,1131.5C 1223.27,1093.08 1223.61,1054.42 1196,1015.5C 1188.7,1006.03 1180.53,997.365 1171.5,989.5C 1171.5,988.833 1171.83,988.5 1172.5,988.5C 1198.31,1005.81 1219.14,1027.81 1235,1054.5C 1255,1093.25 1252.66,1130.58 1228,1166.5C 1209.6,1189.91 1187.76,1209.41 1162.5,1225C 1109.12,1256.35 1052.12,1278.69 991.5,1292C 908.918,1309.25 825.418,1317.42 741,1316.5C 649.041,1316.94 557.874,1308.77 467.5,1292C 396.955,1277.82 329.622,1254.49 265.5,1222C 234.039,1205.68 205.872,1184.85 181,1159.5C 136.718,1108.02 134.051,1054.35 173,998.5C 193.604,971.556 218.77,950.056 248.5,934C 296.728,908.145 347.728,889.811 401.5,879C 450.628,868.339 500.294,861.839 550.5,859.5 Z"/></g>
<g><path style="opacity:1" fill="#ed8787" d="M 1172.5,988.5 C 1171.83,988.5 1171.5,988.833 1171.5,989.5C 1170.04,988.542 1168.71,987.376 1167.5,986C 1169.46,986.097 1171.13,986.93 1172.5,988.5 Z"/></g>
</svg>
